<svg version="1.0" xmlns="http://www.w3.org/2000/svg" preserveAspectRatio="xMidYMid meet" viewBox="67.1 392.02 886.9 237.48">
  <defs>
    <!-- Gradient for AG -->
    <linearGradient id="ag-gradient" x1="0%" y1="100%" x2="0%" y2="0%">
      <stop offset="0%" style="stop-color:#729973; stop-opacity:1"/> <!-- Lighter green -->
      <stop offset="100%" style="stop-color:#3a5c40; stop-opacity:1"/> <!-- Darker green -->
    </linearGradient>

    <!-- Gradient for SYSTEMS -->
    <linearGradient id="systems-gradient" x1="0%" y1="100%" x2="0%" y2="0%">
      <stop offset="0%" style="stop-color:#67462c; stop-opacity:1"/> <!-- Lighter brown -->
      <stop offset="100%" style="stop-color:#554131; stop-opacity:1"/> <!-- Darker brown -->
    </linearGradient>
  </defs>
<g transform="translate(0.000000,1024.000000) scale(0.100000,-0.100000)" fill="#000000" stroke="none">
<!-- S -->
<path fill="url(#systems-gradient)" d="M3028 6305 c-106 -29 -193 -106 -224 -197 -21 -65 -16 -188 11 -243 43 -88 120 -139 313 -210 162 -59 212 -107 212 -205 0 -142 -144 -222 -315 -176 -51 13 -134 52 -170 79 -19 14 -22 12 -58 -45 l-37 -59 22 -19 c45 -37 164 -89 232 -101 131 -22 272 3 367 65 122 81 167 284 92 417 -39 70 -103 115 -241 170 -190 75 -238 104 -268 161 -34 66 -3 169 64 210 74 46 235 32 339 -28 23 -13 44 -24 46 -24 3 0 19 25 37 56 36 64 37 62 -55 108 -106 54 -260 71 -367 41z"/>
<!-- S2 -->
<path fill="url(#systems-gradient)" d="M4740 6305 c-102 -29 -165 -78 -213 -169 -32 -60 -32 -212 0 -273 47 -88 114 -134 303 -206 166 -64 207 -97 217 -175 8 -63 -5 -109 -43 -152 -87 -96 -268 -91 -419 11 l-41 27 -37 -60 -37 -60 22 -18 c157 -130 444 -146 599 -32 132 97 170 296 83 434 -33 52 -108 99 -244 154 -145 58 -188 80 -222 112 -81 76 -52 214 57 263 77 36 216 19 313 -38 48 -28 48 -28 86 39 l28 47 -48 31 c-82 52 -150 72 -254 76 -65 3 -112 -1 -150 -11z"/>
<!-- S3 -->
<path fill="url(#systems-gradient)" d="M8897 6310 c-284 -72 -349 -429 -104 -573 24 -14 103 -49 175 -77 183 -71 222 -108 222 -211 0 -192 -255 -252 -466 -109 l-43 28 -35 -60 -36 -60 22 -18 c76 -64 214 -109 329 -110 255 -1 410 144 397 369 -9 157 -72 216 -330 315 -172 67 -222 113 -221 207 1 116 84 176 232 167 59 -4 91 -12 146 -38 39 -19 74 -34 78 -34 4 -1 22 23 38 51 l30 53 -47 30 c-83 52 -150 72 -254 76 -52 2 -112 -1 -133 -6z"/>
<!-- G -->
<path fill="url(#ag-gradient)" d="M2068 6287 c-164 -56 -280 -190 -325 -374 -24 -99 -21 -304 5 -405 53 -197 165 -312 352 -359 149 -38 315 -17 445 55 l60 33 3 252 2 251 -197 -2 -198 -3 -3 -67 -3 -68 116 0 116 0 -3 -142 -3 -142 -50 -20 c-36 -14 -75 -20 -140 -20 -79 0 -98 3 -148 27 -140 69 -207 228 -194 461 10 192 68 303 189 365 124 63 256 53 424 -31 4 -2 17 26 30 62 26 72 27 69 -46 101 -121 54 -314 66 -432 26z"/>
<!-- T -->
<path fill="url(#systems-gradient)" d="M5287 6303 c-1 -1 -1 -33 1 -72 l4 -71 169 0 169 0 0 -512 0 -513 82 2 83 1 3 511 2 511 176 0 175 0 -3 70 -3 70 -428 3 c-236 1 -429 1 -430 0z"/>
<path fill="url(#systems-gradient)" d="M6284 6295 c-2 -5 -3 -268 -2 -583 l3 -573 348 -2 347 -2 0 73 0 72 -265 0 -265 0 0 190 0 190 225 0 225 0 0 70 0 70 -225 0 -225 0 0 180 0 180 255 0 256 0 -3 70 -3 71 -334 2 c-215 1 -335 -2 -337 -8z"/>
<path fill="url(#ag-gradient)" d="M1079 6263 c-15 -47 -373 -1068 -388 -1106 l-11 -28 93 3 92 3 48 148 48 147 229 0 228 0 49 -147 50 -148 92 -3 c92 -3 93 -3 86 20 -4 13 -98 276 -208 586 l-200 562 -98 0 -97 0 -13 -37z m201 -423 c50 -144 90 -264 90 -266 0 -2 -81 -4 -180 -4 -99 0 -180 3 -180 6 0 14 174 534 177 530 2 -2 44 -121 93 -266z"/>
<path fill="url(#systems-gradient)" d="M3550 6295 c0 -2 83 -159 185 -347 l185 -343 0 -238 0 -238 83 3 82 3 3 236 2 236 184 344 184 344 -81 3 c-73 3 -83 1 -97 -18 -8 -11 -71 -133 -140 -270 -69 -137 -127 -249 -130 -249 -3 0 -68 121 -145 269 l-140 270 -87 0 c-49 0 -88 -2 -88 -5z"/>
<path fill="url(#systems-gradient)" d="M7190 5718 l0 -583 72 2 73 1 0 491 c0 270 2 491 5 491 3 0 73 -177 154 -392 82 -216 166 -438 187 -493 l39 -100 80 0 80 0 45 115 c25 63 109 287 187 497 79 210 145 382 148 383 3 0 5 -224 5 -497 l0 -497 78 1 77 1 3 581 2 582 -119 -3 -118 -3 -160 -420 c-88 -231 -172 -453 -187 -494 l-28 -74 -15 39 c-8 22 -95 245 -193 497 l-178 457 -118 0 -119 0 0 -582z"/>
<path fill="#5c412d" d="M882 4731 c-66 -23 -117 -63 -159 -125 -48 -70 -55 -110 -51 -280 3 -136 5 -156 27 -200 33 -66 91 -122 160 -155 l56 -26 4190 0 4190 0 57 27 c75 35 141 104 167 174 18 46 21 78 21 208 0 150 -1 154 -30 214 -35 69 -92 125 -159 156 l-46 21 -4185 2 c-4034 2 -4187 2 -4238 -16z m1478 -176 l0 -45 40 0 c36 0 40 -2 40 -26 0 -24 -3 -26 -40 -22 l-41 4 3 -121 3 -120 37 -3 c38 -3 59 -29 36 -44 -26 -16 -97 -9 -118 12 -22 22 -23 30 -24 175 -1 96 -2 100 -23 103 -34 5 -31 42 3 42 26 0 26 2 22 45 l-6 45 34 0 c34 0 34 -1 34 -45z m4837 3 l-2 -43 43 -3 c37 -3 42 -6 42 -28 0 -24 -3 -25 -41 -23 l-41 3 1 -114 c1 -62 4 -117 7 -122 3 -4 20 -8 38 -8 25 0 35 -5 39 -19 6 -24 -10 -31 -67 -31 -71 0 -80 18 -85 171 -3 119 -5 129 -22 129 -12 0 -19 7 -19 20 0 13 7 20 20 20 17 0 20 7 20 45 0 45 0 45 34 45 34 0 34 -1 33 -42z m-5828 -52 c43 -23 51 -54 51 -201 l0 -135 -25 0 c-16 0 -25 6 -25 15 0 18 -8 18 -40 0 -14 -8 -44 -14 -68 -15 -81 0 -126 75 -88 149 18 35 56 52 129 58 55 6 57 7 57 34 0 51 -58 72 -130 48 -26 -9 -34 -9 -41 2 -14 22 -11 26 29 42 47 20 115 21 151 3z m1541 -4 c47 -23 80 -89 80 -159 0 -67 -18 -111 -59 -146 -27 -23 -42 -27 -91 -27 -52 0 -64 4 -94 30 -44 39 -59 85 -54 166 6 96 62 154 148 154 19 0 51 -8 70 -18z m903 2 c21 -12 32 -13 35 -5 2 6 16 11 30 11 l27 0 -5 -194 c-5 -178 -7 -197 -26 -223 -29 -38 -60 -53 -118 -53 -50 0 -126 18 -126 30 0 3 6 14 13 24 10 14 17 15 40 7 80 -31 157 4 157 69 0 35 2 34 -39 14 -61 -30 -141 -1 -167 61 -18 44 -18 156 0 200 28 66 112 93 179 59z m566 5 c51 -18 61 -50 61 -204 l0 -135 -25 0 c-16 0 -25 6 -25 15 0 19 -9 19 -34 0 -11 -8 -41 -15 -67 -15 -62 0 -98 29 -106 85 -9 71 56 125 152 125 43 0 45 1 45 29 0 53 -57 75 -130 50 -26 -9 -34 -9 -41 2 -14 22 -11 26 29 42 44 19 97 21 141 6z m1387 -4 c31 -13 34 -17 24 -35 -8 -15 -17 -19 -28 -14 -9 4 -35 9 -58 12 -46 4 -68 -13 -62 -50 2 -18 16 -27 67 -45 79 -27 103 -49 104 -96 1 -45 -18 -81 -50 -96 -34 -16 -117 -14 -159 4 -31 13 -34 17 -24 35 8 15 17 19 28 14 31 -14 112 -16 127 -4 39 32 7 80 -63 95 -18 4 -46 18 -62 32 -53 44 -36 132 30 156 29 11 91 7 126 -8z m1019 1 c37 -16 42 -25 25 -42 -8 -8 -23 -8 -50 0 -72 19 -125 -20 -85 -64 9 -10 36 -23 60 -29 66 -17 105 -54 105 -101 0 -26 -8 -48 -24 -66 -20 -24 -33 -28 -88 -32 -63 -4 -128 15 -128 37 0 20 29 32 49 22 27 -15 104 -14 119 1 16 16 15 53 0 66 -7 5 -39 17 -70 26 -84 24 -121 85 -87 147 23 44 111 61 174 35z m958 0 c44 -18 67 -57 74 -122 l6 -54 -113 0 -113 0 6 -37 c4 -21 16 -46 28 -55 24 -20 89 -24 120 -7 20 10 49 -2 49 -22 0 -18 -61 -39 -112 -39 -101 0 -151 58 -151 176 -1 129 98 206 206 160z m578 -15 l18 -21 38 26 c31 21 46 25 81 21 24 -3 51 -12 62 -22 27 -25 41 -106 38 -221 l-3 -99 -30 0 -30 0 -5 131 c-3 90 -9 136 -19 148 -21 25 -68 20 -96 -10 -24 -26 -25 -33 -25 -150 l0 -124 -30 0 -30 0 0 128 c0 99 -3 132 -16 150 -19 28 -63 29 -98 1 -26 -20 -26 -22 -26 -150 l0 -129 -30 0 -30 0 0 170 0 170 25 0 c16 0 25 -6 25 -15 0 -19 3 -19 42 6 43 26 114 21 139 -10z m694 15 c36 -15 40 -22 27 -43 -5 -9 -17 -9 -48 -1 -50 14 -91 4 -99 -23 -10 -29 16 -53 74 -68 70 -18 101 -49 101 -101 0 -33 -6 -48 -29 -71 -26 -26 -36 -29 -91 -29 -58 0 -120 20 -120 39 0 20 29 32 49 22 27 -15 104 -14 119 1 16 16 15 53 0 65 -7 6 -37 18 -67 28 -91 30 -119 75 -89 141 23 49 105 68 173 40z m-7235 -119 c0 -95 4 -128 16 -145 20 -29 72 -29 108 -1 26 20 26 22 26 145 l0 124 30 0 30 0 0 -170 c0 -167 0 -170 -21 -170 -12 0 -27 7 -34 17 -11 15 -14 15 -36 0 -29 -21 -91 -22 -128 -2 -41 21 -51 61 -51 201 l0 124 30 0 30 0 0 -123z m3190 102 c0 -11 -40 -76 -90 -145 l-89 -124 88 0 c79 0 89 -2 94 -19 3 -11 2 -22 -1 -25 -3 -3 -61 -6 -129 -6 l-123 0 0 29 c0 20 25 63 85 145 47 64 85 119 85 122 0 3 -35 4 -77 3 -72 -2 -77 -1 -78 19 -2 21 2 22 117 22 113 0 118 -1 118 -21z m1189 -110 c23 -72 44 -129 46 -127 2 2 22 60 45 131 l41 127 34 0 35 0 -15 -37 c-8 -21 -41 -114 -75 -208 -33 -93 -68 -181 -78 -195 -15 -20 -29 -26 -71 -28 -28 -2 -51 1 -51 7 0 26 14 41 41 41 31 0 59 31 59 65 0 11 -27 95 -60 185 -33 91 -60 166 -60 168 0 1 15 2 33 2 l33 0 43 -131z"/>
<path fill="#5c412d" d="M1262 4330 c-31 -13 -46 -49 -33 -83 9 -23 16 -27 49 -27 50 0 82 32 82 83 0 36 -1 37 -37 36 -21 0 -48 -4 -61 -9z"/>
<path fill="#5c412d" d="M2781 4444 c-42 -53 -37 -168 9 -209 28 -25 75 -23 105 5 45 43 46 160 0 206 -34 34 -87 33 -114 -2z"/>
<path fill="#5c412d" d="M3709 4444 c-21 -22 -24 -35 -24 -101 0 -70 2 -76 28 -99 34 -29 66 -31 101 -3 25 19 26 25 26 109 0 80 -2 90 -22 104 -35 24 -81 20 -109 -10z"/>
<path fill="#5c412d" d="M4282 4330 c-39 -16 -50 -80 -18 -102 6 -4 25 -8 42 -8 42 0 74 36 74 83 0 36 -1 37 -37 36 -21 0 -48 -4 -61 -9z"/>
<path fill="#5c412d" d="M7620 4438 c-33 -54 -29 -58 60 -58 89 0 93 4 60 58 -17 28 -25 32 -60 32 -35 0 -43 -4 -60 -32z"/>
</g>
</svg>